<svg xmlns="http://www.w3.org/2000/svg" xmlns:xlink="http://www.w3.org/1999/xlink" width="4000" zoomAndPan="magnify" viewBox="0 0 3000 749.999995" height="1000" preserveAspectRatio="xMidYMid meet" version="1.0"><defs><g/></defs><g fill="#ffffff" fill-opacity="1"><g transform="translate(54.669013, 647.134625)"><g><path d="M 366.796875 -294.984375 L 366.796875 -472.875 L 459.9375 -472.875 L 459.9375 0 L 366.796875 0 L 366.796875 -215.421875 L 154.9375 -215.421875 L 154.9375 0 L 61.453125 0 L 61.453125 -472.875 L 154.9375 -472.875 L 154.9375 -294.984375 Z M 366.796875 -294.984375 "/></g></g><g transform="translate(576.390435, 647.134625)"><g><path d="M 139.078125 6.796875 C 116.222656 6.796875 96.382812 2.59375 79.5625 -5.8125 C 62.75 -14.226562 49.8125 -26.578125 40.75 -42.859375 C 31.695312 -59.140625 27.171875 -78.707031 27.171875 -101.5625 C 27.171875 -122.695312 31.695312 -140.429688 40.75 -154.765625 C 49.8125 -169.109375 63.828125 -180.859375 82.796875 -190.015625 C 101.773438 -199.179688 126.578125 -206.25 157.203125 -211.21875 C 178.546875 -214.664062 194.769531 -218.4375 205.875 -222.53125 C 216.976562 -226.625 224.46875 -231.257812 228.34375 -236.4375 C 232.226562 -241.613281 234.171875 -248.191406 234.171875 -256.171875 C 234.171875 -267.597656 230.179688 -276.328125 222.203125 -282.359375 C 214.222656 -288.398438 200.960938 -291.421875 182.421875 -291.421875 C 162.585938 -291.421875 143.71875 -287 125.8125 -278.15625 C 107.914062 -269.320312 92.394531 -257.679688 79.25 -243.234375 L 72.78125 -243.234375 L 35.25 -299.84375 C 53.363281 -319.894531 75.46875 -335.523438 101.5625 -346.734375 C 127.65625 -357.953125 156.117188 -363.5625 186.953125 -363.5625 C 234.171875 -363.5625 268.347656 -353.53125 289.484375 -333.46875 C 310.617188 -313.414062 321.1875 -284.953125 321.1875 -248.078125 L 321.1875 -93.15625 C 321.1875 -77.195312 328.191406 -69.21875 342.203125 -69.21875 C 347.597656 -69.21875 352.882812 -70.1875 358.0625 -72.125 L 362.578125 -70.828125 L 369.046875 -8.40625 C 364.085938 -5.175781 357.1875 -2.535156 348.34375 -0.484375 C 339.507812 1.566406 329.8125 2.59375 319.25 2.59375 C 297.894531 2.59375 281.234375 -1.503906 269.265625 -9.703125 C 257.296875 -17.898438 248.726562 -30.726562 243.5625 -48.1875 L 236.765625 -48.84375 C 219.296875 -11.75 186.734375 6.796875 139.078125 6.796875 Z M 167.546875 -60.15625 C 188.242188 -60.15625 204.789062 -67.109375 217.1875 -81.015625 C 229.59375 -94.929688 235.796875 -114.285156 235.796875 -139.078125 L 235.796875 -175.3125 L 229.640625 -176.609375 C 224.253906 -172.296875 217.191406 -168.679688 208.453125 -165.765625 C 199.722656 -162.859375 187.164062 -160.003906 170.78125 -157.203125 C 151.375 -153.960938 137.410156 -148.40625 128.890625 -140.53125 C 120.378906 -132.664062 116.125 -121.507812 116.125 -107.0625 C 116.125 -91.75 120.648438 -80.101562 129.703125 -72.125 C 138.753906 -64.144531 151.367188 -60.15625 167.546875 -60.15625 Z M 167.546875 -60.15625 "/></g></g><g transform="translate(952.56031, 647.134625)"><g><path d="M 166.90625 6.796875 C 142.53125 6.796875 120.207031 3.941406 99.9375 -1.765625 C 79.675781 -7.484375 62.375 -15.359375 48.03125 -25.390625 C 33.6875 -35.421875 23.066406 -46.90625 16.171875 -59.84375 L 65.984375 -113.53125 L 72.78125 -113.53125 C 84.632812 -97.570312 98.644531 -85.601562 114.8125 -77.625 C 130.988281 -69.644531 148.566406 -65.65625 167.546875 -65.65625 C 185.015625 -65.65625 198.164062 -68.78125 207 -75.03125 C 215.84375 -81.289062 220.265625 -90.242188 220.265625 -101.890625 C 220.265625 -110.941406 217.082031 -118.539062 210.71875 -124.6875 C 204.363281 -130.832031 194.070312 -135.628906 179.84375 -139.078125 L 132.609375 -150.40625 C 97.242188 -158.8125 71.421875 -171.691406 55.140625 -189.046875 C 38.867188 -206.410156 30.734375 -228.460938 30.734375 -255.203125 C 30.734375 -277.410156 36.390625 -296.707031 47.703125 -313.09375 C 59.023438 -329.488281 74.984375 -342 95.578125 -350.625 C 116.171875 -359.25 140.160156 -363.5625 167.546875 -363.5625 C 199.671875 -363.5625 226.300781 -358.921875 247.4375 -349.640625 C 268.570312 -340.367188 285.066406 -327.972656 296.921875 -312.453125 L 249.0625 -260.703125 L 242.59375 -260.703125 C 232.664062 -271.910156 221.503906 -280.101562 209.109375 -285.28125 C 196.710938 -290.457031 182.859375 -293.046875 167.546875 -293.046875 C 132.179688 -293.046875 114.5 -282.046875 114.5 -260.046875 C 114.5 -250.773438 117.785156 -243.226562 124.359375 -237.40625 C 130.941406 -231.582031 142.535156 -226.835938 159.140625 -223.171875 L 203.125 -213.46875 C 239.351562 -205.707031 265.820312 -193.253906 282.53125 -176.109375 C 299.238281 -158.972656 307.59375 -135.957031 307.59375 -107.0625 C 307.59375 -84.414062 301.984375 -64.46875 290.765625 -47.21875 C 279.554688 -29.96875 263.382812 -16.648438 242.25 -7.265625 C 221.125 2.109375 196.007812 6.796875 166.90625 6.796875 Z M 166.90625 6.796875 "/></g></g><g transform="translate(1281.506797, 647.134625)"><g><path d="M 352.5625 -158.171875 L 123.234375 -158.171875 C 125.816406 -127.117188 134.65625 -104.53125 149.75 -90.40625 C 164.84375 -76.28125 185.4375 -69.21875 211.53125 -69.21875 C 232.019531 -69.21875 248.625 -73.046875 261.34375 -80.703125 C 274.0625 -88.359375 284.304688 -99.945312 292.078125 -115.46875 L 298.859375 -115.46875 L 358.375 -77.296875 C 346.738281 -52.285156 329.164062 -32.015625 305.65625 -16.484375 C 282.15625 -0.960938 250.78125 6.796875 211.53125 6.796875 C 174.65625 6.796875 142.796875 -0.207031 115.953125 -14.21875 C 89.109375 -28.238281 68.40625 -49.101562 53.84375 -76.8125 C 39.289062 -104.519531 32.015625 -138.320312 32.015625 -178.21875 C 32.015625 -218.757812 39.671875 -252.9375 54.984375 -280.75 C 70.296875 -308.570312 90.992188 -329.328125 117.078125 -343.015625 C 143.171875 -356.710938 172.5 -363.5625 205.0625 -363.5625 C 255.519531 -363.5625 294.171875 -350.191406 321.015625 -323.453125 C 347.867188 -296.710938 361.296875 -257.46875 361.296875 -205.71875 C 361.296875 -186.957031 360.644531 -172.398438 359.34375 -162.046875 Z M 275.578125 -216.0625 C 274.710938 -243.226562 268.40625 -263.007812 256.65625 -275.40625 C 244.90625 -287.8125 227.707031 -294.015625 205.0625 -294.015625 C 159.78125 -294.015625 133.148438 -268.03125 125.171875 -216.0625 Z M 275.578125 -216.0625 "/></g></g><g transform="translate(1669.320798, 647.134625)"><g><path d="M 352.5625 -158.171875 L 123.234375 -158.171875 C 125.816406 -127.117188 134.65625 -104.53125 149.75 -90.40625 C 164.84375 -76.28125 185.4375 -69.21875 211.53125 -69.21875 C 232.019531 -69.21875 248.625 -73.046875 261.34375 -80.703125 C 274.0625 -88.359375 284.304688 -99.945312 292.078125 -115.46875 L 298.859375 -115.46875 L 358.375 -77.296875 C 346.738281 -52.285156 329.164062 -32.015625 305.65625 -16.484375 C 282.15625 -0.960938 250.78125 6.796875 211.53125 6.796875 C 174.65625 6.796875 142.796875 -0.207031 115.953125 -14.21875 C 89.109375 -28.238281 68.40625 -49.101562 53.84375 -76.8125 C 39.289062 -104.519531 32.015625 -138.320312 32.015625 -178.21875 C 32.015625 -218.757812 39.671875 -252.9375 54.984375 -280.75 C 70.296875 -308.570312 90.992188 -329.328125 117.078125 -343.015625 C 143.171875 -356.710938 172.5 -363.5625 205.0625 -363.5625 C 255.519531 -363.5625 294.171875 -350.191406 321.015625 -323.453125 C 347.867188 -296.710938 361.296875 -257.46875 361.296875 -205.71875 C 361.296875 -186.957031 360.644531 -172.398438 359.34375 -162.046875 Z M 275.578125 -216.0625 C 274.710938 -243.226562 268.40625 -263.007812 256.65625 -275.40625 C 244.90625 -287.8125 227.707031 -294.015625 205.0625 -294.015625 C 159.78125 -294.015625 133.148438 -268.03125 125.171875 -216.0625 Z M 275.578125 -216.0625 "/></g></g><g transform="translate(2057.134799, 647.134625)"><g><path d="M 249.375 6.796875 C 203.875 6.796875 170.019531 -10.238281 147.8125 -44.3125 L 141.015625 -43.015625 L 141.015625 0 L 51.421875 0 L 51.421875 -500.046875 L 141.015625 -500.046875 L 141.015625 -314.71875 L 147.8125 -313.421875 C 160.101562 -330.453125 174.601562 -343.066406 191.3125 -351.265625 C 208.03125 -359.460938 228.03125 -363.5625 251.3125 -363.5625 C 280.207031 -363.5625 305.4375 -356.765625 327 -343.171875 C 348.5625 -329.585938 365.378906 -308.941406 377.453125 -281.234375 C 389.535156 -253.523438 395.578125 -219.1875 395.578125 -178.21875 C 395.578125 -137.675781 389.320312 -103.550781 376.8125 -75.84375 C 364.3125 -48.132812 347.0625 -27.429688 325.0625 -13.734375 C 303.070312 -0.046875 277.84375 6.796875 249.375 6.796875 Z M 222.203125 -69.21875 C 248.515625 -69.21875 268.570312 -78.003906 282.375 -95.578125 C 296.175781 -113.148438 303.078125 -140.695312 303.078125 -178.21875 C 303.078125 -215.957031 296.175781 -243.613281 282.375 -261.1875 C 268.570312 -278.757812 248.515625 -287.546875 222.203125 -287.546875 C 196.972656 -287.546875 176.972656 -278.488281 162.203125 -260.375 C 147.429688 -242.257812 140.046875 -214.875 140.046875 -178.21875 C 140.046875 -141.5625 147.429688 -114.226562 162.203125 -96.21875 C 176.972656 -78.21875 196.972656 -69.21875 222.203125 -69.21875 Z M 222.203125 -69.21875 "/></g></g><g transform="translate(2484.409439, 647.134625)"><g><path d="M 453.796875 0 L 355.46875 0 L 319.890625 -109 L 138.765625 -109 L 103.1875 0 L 7.109375 0 L 170.453125 -472.875 L 290.453125 -472.875 Z M 224.796875 -374.234375 L 163.984375 -187.59375 L 294.015625 -187.59375 L 232.875 -374.234375 Z M 224.796875 -374.234375 "/></g></g></g></svg>