<svg xmlns="http://www.w3.org/2000/svg" xmlns:xlink="http://www.w3.org/1999/xlink" width="1080" zoomAndPan="magnify" viewBox="0 0 810 809.999993" height="1080" preserveAspectRatio="xMidYMid meet" version="1.0"><defs><g/></defs><rect x="-81" width="972" fill="#ffffff" y="-80.999999" height="971.999992" fill-opacity="1"/><rect x="-81" width="972" fill="#ffffff" y="-80.999999" height="971.999992" fill-opacity="1"/><g fill="#ffffff" fill-opacity="1"><g transform="translate(70.496455, 463.227938)"><g><path d="M 84.890625 -68.265625 L 84.890625 -109.4375 L 106.453125 -109.4375 L 106.453125 0 L 84.890625 0 L 84.890625 -49.859375 L 35.859375 -49.859375 L 35.859375 0 L 14.21875 0 L 14.21875 -109.4375 L 35.859375 -109.4375 L 35.859375 -68.265625 Z M 84.890625 -68.265625 "/></g></g><g transform="translate(191.242261, 463.227938)"><g><path d="M 32.1875 1.578125 C 26.894531 1.578125 22.300781 0.601562 18.40625 -1.34375 C 14.519531 -3.289062 11.523438 -6.148438 9.421875 -9.921875 C 7.328125 -13.691406 6.28125 -18.21875 6.28125 -23.5 C 6.28125 -28.394531 7.328125 -32.5 9.421875 -35.8125 C 11.523438 -39.132812 14.769531 -41.851562 19.15625 -43.96875 C 23.550781 -46.09375 29.289062 -47.734375 36.375 -48.890625 C 41.320312 -49.679688 45.078125 -50.550781 47.640625 -51.5 C 50.210938 -52.445312 51.945312 -53.519531 52.84375 -54.71875 C 53.75 -55.914062 54.203125 -57.4375 54.203125 -59.28125 C 54.203125 -61.925781 53.273438 -63.945312 51.421875 -65.34375 C 49.578125 -66.75 46.507812 -67.453125 42.21875 -67.453125 C 37.625 -67.453125 33.253906 -66.425781 29.109375 -64.375 C 24.972656 -62.332031 21.382812 -59.640625 18.34375 -56.296875 L 16.84375 -56.296875 L 8.15625 -69.390625 C 12.351562 -74.035156 17.46875 -77.65625 23.5 -80.25 C 29.539062 -82.84375 36.128906 -84.140625 43.265625 -84.140625 C 54.191406 -84.140625 62.097656 -81.816406 66.984375 -77.171875 C 71.878906 -72.535156 74.328125 -65.953125 74.328125 -57.421875 L 74.328125 -21.5625 C 74.328125 -17.863281 75.953125 -16.015625 79.203125 -16.015625 C 80.453125 -16.015625 81.675781 -16.238281 82.875 -16.6875 L 83.921875 -16.390625 L 85.421875 -1.953125 C 84.265625 -1.203125 82.660156 -0.585938 80.609375 -0.109375 C 78.566406 0.359375 76.328125 0.59375 73.890625 0.59375 C 68.941406 0.59375 65.082031 -0.351562 62.3125 -2.25 C 59.550781 -4.144531 57.570312 -7.113281 56.375 -11.15625 L 54.796875 -11.296875 C 50.753906 -2.710938 43.21875 1.578125 32.1875 1.578125 Z M 38.78125 -13.921875 C 43.570312 -13.921875 47.398438 -15.53125 50.265625 -18.75 C 53.140625 -21.96875 54.578125 -26.445312 54.578125 -32.1875 L 54.578125 -40.578125 L 53.15625 -40.875 C 51.90625 -39.875 50.269531 -39.035156 48.25 -38.359375 C 46.226562 -37.691406 43.320312 -37.03125 39.53125 -36.375 C 35.03125 -35.632812 31.796875 -34.351562 29.828125 -32.53125 C 27.859375 -30.707031 26.875 -28.125 26.875 -24.78125 C 26.875 -21.238281 27.921875 -18.539062 30.015625 -16.6875 C 32.109375 -14.84375 35.03125 -13.921875 38.78125 -13.921875 Z M 38.78125 -13.921875 "/></g></g><g transform="translate(278.302007, 463.227938)"><g><path d="M 38.625 1.578125 C 32.988281 1.578125 27.820312 0.914062 23.125 -0.40625 C 18.4375 -1.726562 14.429688 -3.550781 11.109375 -5.875 C 7.796875 -8.195312 5.34375 -10.851562 3.75 -13.84375 L 15.265625 -26.28125 L 16.84375 -26.28125 C 19.582031 -22.582031 22.820312 -19.8125 26.5625 -17.96875 C 30.3125 -16.125 34.382812 -15.203125 38.78125 -15.203125 C 42.820312 -15.203125 45.863281 -15.921875 47.90625 -17.359375 C 49.957031 -18.804688 50.984375 -20.878906 50.984375 -23.578125 C 50.984375 -25.671875 50.242188 -27.425781 48.765625 -28.84375 C 47.296875 -30.269531 44.914062 -31.382812 41.625 -32.1875 L 30.6875 -34.8125 C 22.507812 -36.757812 16.535156 -39.738281 12.765625 -43.75 C 8.992188 -47.769531 7.109375 -52.875 7.109375 -59.0625 C 7.109375 -64.207031 8.414062 -68.675781 11.03125 -72.46875 C 13.65625 -76.257812 17.347656 -79.148438 22.109375 -81.140625 C 26.878906 -83.140625 32.4375 -84.140625 38.78125 -84.140625 C 46.21875 -84.140625 52.378906 -83.066406 57.265625 -80.921875 C 62.160156 -78.773438 65.976562 -75.90625 68.71875 -72.3125 L 57.640625 -60.34375 L 56.140625 -60.34375 C 53.847656 -62.9375 51.265625 -64.832031 48.390625 -66.03125 C 45.523438 -67.226562 42.320312 -67.828125 38.78125 -67.828125 C 30.59375 -67.828125 26.5 -65.28125 26.5 -60.1875 C 26.5 -58.039062 27.257812 -56.289062 28.78125 -54.9375 C 30.300781 -53.59375 32.984375 -52.5 36.828125 -51.65625 L 47.015625 -49.40625 C 55.398438 -47.613281 61.523438 -44.734375 65.390625 -40.765625 C 69.253906 -36.796875 71.1875 -31.46875 71.1875 -24.78125 C 71.1875 -19.539062 69.890625 -14.921875 67.296875 -10.921875 C 64.703125 -6.929688 60.957031 -3.847656 56.0625 -1.671875 C 51.175781 0.492188 45.363281 1.578125 38.625 1.578125 Z M 38.625 1.578125 "/></g></g><g transform="translate(354.432499, 463.227938)"><g><path d="M 81.59375 -36.609375 L 28.515625 -36.609375 C 29.117188 -29.421875 31.164062 -24.191406 34.65625 -20.921875 C 38.15625 -17.648438 42.921875 -16.015625 48.953125 -16.015625 C 53.691406 -16.015625 57.535156 -16.898438 60.484375 -18.671875 C 63.429688 -20.441406 65.800781 -23.125 67.59375 -26.71875 L 69.171875 -26.71875 L 82.9375 -17.890625 C 80.25 -12.097656 76.179688 -7.40625 70.734375 -3.8125 C 65.296875 -0.21875 58.035156 1.578125 48.953125 1.578125 C 40.421875 1.578125 33.046875 -0.0390625 26.828125 -3.28125 C 20.617188 -6.53125 15.828125 -11.363281 12.453125 -17.78125 C 9.085938 -24.195312 7.40625 -32.019531 7.40625 -41.25 C 7.40625 -50.632812 9.175781 -58.546875 12.71875 -64.984375 C 16.269531 -71.421875 21.0625 -76.222656 27.09375 -79.390625 C 33.132812 -82.554688 39.925781 -84.140625 47.46875 -84.140625 C 59.144531 -84.140625 68.085938 -81.046875 74.296875 -74.859375 C 80.515625 -68.671875 83.625 -59.585938 83.625 -47.609375 C 83.625 -43.265625 83.472656 -39.894531 83.171875 -37.5 Z M 63.78125 -50 C 63.582031 -56.289062 62.125 -60.867188 59.40625 -63.734375 C 56.6875 -66.609375 52.707031 -68.046875 47.46875 -68.046875 C 36.976562 -68.046875 30.8125 -62.03125 28.96875 -50 Z M 63.78125 -50 "/></g></g><g transform="translate(444.18713, 463.227938)"><g><path d="M 81.59375 -36.609375 L 28.515625 -36.609375 C 29.117188 -29.421875 31.164062 -24.191406 34.65625 -20.921875 C 38.15625 -17.648438 42.921875 -16.015625 48.953125 -16.015625 C 53.691406 -16.015625 57.535156 -16.898438 60.484375 -18.671875 C 63.429688 -20.441406 65.800781 -23.125 67.59375 -26.71875 L 69.171875 -26.71875 L 82.9375 -17.890625 C 80.25 -12.097656 76.179688 -7.40625 70.734375 -3.8125 C 65.296875 -0.21875 58.035156 1.578125 48.953125 1.578125 C 40.421875 1.578125 33.046875 -0.0390625 26.828125 -3.28125 C 20.617188 -6.53125 15.828125 -11.363281 12.453125 -17.78125 C 9.085938 -24.195312 7.40625 -32.019531 7.40625 -41.25 C 7.40625 -50.632812 9.175781 -58.546875 12.71875 -64.984375 C 16.269531 -71.421875 21.0625 -76.222656 27.09375 -79.390625 C 33.132812 -82.554688 39.925781 -84.140625 47.46875 -84.140625 C 59.144531 -84.140625 68.085938 -81.046875 74.296875 -74.859375 C 80.515625 -68.671875 83.625 -59.585938 83.625 -47.609375 C 83.625 -43.265625 83.472656 -39.894531 83.171875 -37.5 Z M 63.78125 -50 C 63.582031 -56.289062 62.125 -60.867188 59.40625 -63.734375 C 56.6875 -66.609375 52.707031 -68.046875 47.46875 -68.046875 C 36.976562 -68.046875 30.8125 -62.03125 28.96875 -50 Z M 63.78125 -50 "/></g></g><g transform="translate(533.941761, 463.227938)"><g><path d="M 57.71875 1.578125 C 47.1875 1.578125 39.347656 -2.363281 34.203125 -10.25 L 32.640625 -9.953125 L 32.640625 0 L 11.90625 0 L 11.90625 -115.734375 L 32.640625 -115.734375 L 32.640625 -72.84375 L 34.203125 -72.53125 C 37.054688 -76.476562 40.414062 -79.398438 44.28125 -81.296875 C 48.144531 -83.191406 52.773438 -84.140625 58.171875 -84.140625 C 64.859375 -84.140625 70.695312 -82.566406 75.6875 -79.421875 C 80.675781 -76.273438 84.566406 -71.492188 87.359375 -65.078125 C 90.148438 -58.671875 91.546875 -50.726562 91.546875 -41.25 C 91.546875 -31.863281 90.097656 -23.960938 87.203125 -17.546875 C 84.316406 -11.140625 80.328125 -6.347656 75.234375 -3.171875 C 70.140625 -0.00390625 64.300781 1.578125 57.71875 1.578125 Z M 51.421875 -16.015625 C 57.515625 -16.015625 62.15625 -18.046875 65.34375 -22.109375 C 68.539062 -26.179688 70.140625 -32.5625 70.140625 -41.25 C 70.140625 -49.976562 68.539062 -56.375 65.34375 -60.4375 C 62.15625 -64.507812 57.515625 -66.546875 51.421875 -66.546875 C 45.585938 -66.546875 40.960938 -64.445312 37.546875 -60.25 C 34.128906 -56.0625 32.421875 -49.726562 32.421875 -41.25 C 32.421875 -32.757812 34.128906 -26.429688 37.546875 -22.265625 C 40.960938 -18.097656 45.585938 -16.015625 51.421875 -16.015625 Z M 51.421875 -16.015625 "/></g></g><g transform="translate(632.829057, 463.227938)"><g><path d="M 105.03125 0 L 82.265625 0 L 74.03125 -25.234375 L 32.109375 -25.234375 L 23.875 0 L 1.640625 0 L 39.453125 -109.4375 L 67.21875 -109.4375 Z M 52.03125 -86.609375 L 37.953125 -43.421875 L 68.046875 -43.421875 L 53.90625 -86.609375 Z M 52.03125 -86.609375 "/></g></g></g></svg>